<svg id="Layer_1" data-name="Layer 1" xmlns="http://www.w3.org/2000/svg" viewBox="0 0 24 24"><defs><style>.cls-1,.cls-2{fill:none;}.cls-2{stroke:#000;stroke-linejoin:round;}</style></defs><title>logo-dribble</title><rect class="cls-1" x="0.07" y="-0.21" width="24" height="24"/><path class="cls-2" d="M20,7.59a9.1,9.1,0,0,0-3.32-3.2,9.28,9.28,0,0,0-4.59-1.18A9.18,9.18,0,0,0,7.47,4.39a9,9,0,0,0-3.32,3.2A8.43,8.43,0,0,0,2.93,12a8.33,8.33,0,0,0,1.74,5.17,8.92,8.92,0,0,0,4.5,3.18.55.55,0,0,0,.48-.08.45.45,0,0,0,.15-.34v-.62c0-.39,0-.73,0-1l-.27,0a2.93,2.93,0,0,1-.66,0A4.58,4.58,0,0,1,8,18.3,1.75,1.75,0,0,1,7.24,18a1.49,1.49,0,0,1-.53-.71L6.59,17a2.78,2.78,0,0,0-.37-.59A1.34,1.34,0,0,0,5.7,16l-.09-.06a1,1,0,0,1-.15-.13.62.62,0,0,1-.11-.17s0-.09.06-.13a.92.92,0,0,1,.35-.05l.24,0a1.76,1.76,0,0,1,.58.28,1.81,1.81,0,0,1,.58.59,1.93,1.93,0,0,0,.66.72,1.49,1.49,0,0,0,.78.25,3.82,3.82,0,0,0,.68-.06,2.34,2.34,0,0,0,.53-.17,1.86,1.86,0,0,1,.59-1.18,8.41,8.41,0,0,1-1.22-.21,4.75,4.75,0,0,1-1.12-.44,3.29,3.29,0,0,1-1-.77,3.72,3.72,0,0,1-.63-1.21,5.58,5.58,0,0,1-.24-1.72,3.31,3.31,0,0,1,.94-2.36,3,3,0,0,1,.09-2.33,1.71,1.71,0,0,1,1,.15,7.36,7.36,0,0,1,1,.44c.21.12.38.22.51.31a8.85,8.85,0,0,1,4.57,0l.45-.28A6,6,0,0,1,15.89,7a1.58,1.58,0,0,1,1-.13A3,3,0,0,1,17,9.18a3.25,3.25,0,0,1,.94,2.36,5.63,5.63,0,0,1-.24,1.72A3.53,3.53,0,0,1,17,14.47a3.4,3.4,0,0,1-1,.76,4.92,4.92,0,0,1-1.12.44,8.41,8.41,0,0,1-1.22.21,2,2,0,0,1,.62,1.62v2.42a.45.45,0,0,0,.15.34.54.54,0,0,0,.47.08,9,9,0,0,0,4.51-3.18A8.31,8.31,0,0,0,21.21,12,8.52,8.52,0,0,0,20,7.59Z"/></svg>