<?xml version="1.0" encoding="utf-8"?>
<!-- Generator: Adobe Illustrator 23.0.1, SVG Export Plug-In . SVG Version: 6.00 Build 0)  -->
<svg version="1.1" id="Layer_1" xmlns="http://www.w3.org/2000/svg" xmlns:xlink="http://www.w3.org/1999/xlink" x="0px" y="0px"
	 viewBox="0 0 24 24" style="enable-background:new 0 0 24 24;" xml:space="preserve">
<style type="text/css">
	.st0{fill:none;}
	.st1{display:none;fill-rule:evenodd;clip-rule:evenodd;}
	.st2{fill:none;stroke:#000000;stroke-linejoin:round;stroke-miterlimit:10;}
</style>
<rect x="0.1" y="-0.2" class="st0" width="24" height="24"/>
<path class="st1" d="M15,3.5C14,3.2,13,3.1,12,3.1c-1.9,0-3.7,0.6-5.3,1.7C4.5,6.4,3.2,8.8,3,11.6c0,0.2,0,0.3,0,0.5
	c0,4.2,3,7.9,7.1,8.8C10.7,21,11.4,21,12,21c1,0,1.9-0.2,2.8-0.5h0c0,0,0,0,0,0c3.1-1,5.4-3.7,6-6.9C21,13.1,21,12.6,21,12
	C21,8.2,18.6,4.8,15,3.5z M19.8,12c0,0.1,0,0.1,0,0.2c-1.7-0.3-3.5-0.1-5,0.5c-0.4-1.2-0.9-2.3-1.6-3.3C14.3,8.2,15,6.6,15.3,5
	C18,6.2,19.8,9,19.8,12z M14.1,4.6c-0.2,1.4-0.7,2.8-1.6,3.9C11.4,7,10,5.9,8.4,5.1c1.1-0.6,2.3-0.9,3.6-0.9
	C12.7,4.2,13.4,4.4,14.1,4.6z M7.2,5.9c1.7,0.7,3.3,1.8,4.5,3.4c-1.4,1.3-3.3,2.1-5.3,2.1c-0.7,0-1.4-0.1-2.1-0.3
	C4.5,9.1,5.5,7.2,7.2,5.9z M4.2,12.4c0.7,0.2,1.4,0.3,2.1,0.3c2.2,0,4.3-0.8,6-2.3c0.6,0.9,1,1.9,1.3,2.9c-2.4,1.2-4.1,3.4-4.8,5.9
	C6.2,18,4.4,15.4,4.2,12.4z M10.3,19.7c-0.1,0-0.2-0.1-0.4-0.1c0.6-2.2,2.1-4,4-5.1c0,0,0,0,0,0c0.2,1,0.3,1.9,0.3,2.9
	c0,0.7-0.1,1.5-0.2,2.2C12.9,19.9,11.6,19.9,10.3,19.7z M15.4,19.1c0.1-0.6,0.1-1.1,0.1-1.7c0-1-0.1-2.1-0.3-3.1
	c0-0.1-0.1-0.2-0.1-0.3c1.4-0.6,3-0.8,4.6-0.5c0,0,0,0,0,0.1C19.2,15.9,17.6,18,15.4,19.1z"/>
<path class="st2" d="M20,7.6c-0.8-1.3-1.9-2.4-3.3-3.2c-1.4-0.8-2.9-1.2-4.6-1.2S8.9,3.6,7.5,4.4C6.1,5.2,4.9,6.3,4.2,7.6
	C3.3,8.9,2.9,10.4,2.9,12c0,1.9,0.6,3.6,1.7,5.2s2.7,2.6,4.5,3.2c0.2,0,0.4,0,0.5-0.1c0.1-0.1,0.2-0.2,0.2-0.3c0,0,0-0.2,0-0.6
	c0-0.4,0-0.7,0-1l-0.3,0c-0.2,0-0.4,0-0.7,0c-0.3,0-0.6,0-0.8-0.1c-0.3-0.1-0.6-0.2-0.8-0.3c-0.2-0.2-0.4-0.4-0.5-0.7L6.6,17
	c-0.1-0.2-0.2-0.4-0.4-0.6C6.1,16.2,5.9,16,5.7,16l-0.1-0.1c-0.1,0-0.1-0.1-0.2-0.1c0,0-0.1-0.1-0.1-0.2c0-0.1,0-0.1,0.1-0.1
	c0.1,0,0.2-0.1,0.3-0.1l0.2,0c0.2,0,0.4,0.1,0.6,0.3c0.2,0.2,0.4,0.4,0.6,0.6c0.2,0.3,0.4,0.6,0.7,0.7c0.3,0.2,0.5,0.2,0.8,0.2
	c0.2,0,0.5,0,0.7-0.1c0.2,0,0.4-0.1,0.5-0.2c0.1-0.5,0.3-0.9,0.6-1.2c-0.4,0-0.8-0.1-1.2-0.2c-0.4-0.1-0.8-0.3-1.1-0.4
	c-0.4-0.2-0.7-0.5-1-0.8c-0.3-0.3-0.5-0.7-0.6-1.2c-0.2-0.5-0.2-1.1-0.2-1.7c0-0.9,0.3-1.7,0.9-2.4C6.9,8.5,6.9,7.7,7.3,6.8
	c0.2-0.1,0.6,0,1,0.2c0.5,0.2,0.8,0.3,1,0.4c0.2,0.1,0.4,0.2,0.5,0.3c1.5-0.4,3.1-0.4,4.6,0l0.5-0.3c0.3-0.2,0.7-0.4,1.1-0.5
	c0.4-0.2,0.7-0.2,1-0.1c0.4,0.9,0.4,1.6,0.1,2.3c0.6,0.7,0.9,1.4,0.9,2.4c0,0.7-0.1,1.2-0.2,1.7c-0.2,0.5-0.4,0.9-0.6,1.2
	c-0.3,0.3-0.6,0.6-1,0.8c-0.4,0.2-0.7,0.3-1.1,0.4c-0.4,0.1-0.8,0.2-1.2,0.2c0.4,0.3,0.6,0.9,0.6,1.6v2.4c0,0.1,0.1,0.3,0.2,0.3
	c0.1,0.1,0.3,0.1,0.5,0.1c1.8-0.6,3.3-1.6,4.5-3.2c1.2-1.5,1.7-3.3,1.7-5.2C21.2,10.4,20.8,8.9,20,7.6z"/>
</svg>
