<svg id="Layer_1" data-name="Layer 1" xmlns="http://www.w3.org/2000/svg" viewBox="0 0 64 64"><title>logo-email</title><path d="M31.91,54.27H9.4a5.75,5.75,0,0,1-4.17-1.6A5.52,5.52,0,0,1,3.52,48.8c0-.61,0-1.22,0-1.84V14.66A5.6,5.6,0,0,1,5.92,9.84a5.29,5.29,0,0,1,3.19-1H54.68a5.63,5.63,0,0,1,5.6,4.95,7.34,7.34,0,0,1,0,.81q0,17,0,33.91a5.59,5.59,0,0,1-2.61,4.9,5.78,5.78,0,0,1-3.29.9Zm-25-34.63v.41q0,13.87,0,27.77a4.79,4.79,0,0,0,0,.93,2.66,2.66,0,0,0,2.84,2.1H53.9a2.64,2.64,0,0,0,2-.86,3,3,0,0,0,.71-2.14V19.66l-.25.15L40.2,31.33A14.24,14.24,0,0,1,30.42,34a14,14,0,0,1-6.9-2.58Q16,26.13,8.57,20.8Zm25-7.39H9.6a2.6,2.6,0,0,0-2.55,1.89,7.36,7.36,0,0,0-.11,1.16.5.5,0,0,0,.26.52q1.87,1.32,3.74,2.65,7.23,5.1,14.44,10.22a11.07,11.07,0,0,0,13.13,0q8.84-6.28,17.7-12.54c.72-.51.73-.51.68-1.38a2.57,2.57,0,0,0-2-2.42,5.76,5.76,0,0,0-1-.06Z"/></svg>