<svg id="Layer_1" data-name="Layer 1" xmlns="http://www.w3.org/2000/svg" viewBox="0 0 24 24"><defs><style>.cls-1{fill:none;}.cls-2{fill-rule:evenodd;}</style></defs><title>logo-dribble</title><rect class="cls-1" width="24" height="24"/><path class="cls-2" d="M15,3.55A9,9,0,0,0,6.72,4.77,9,9,0,0,0,3,11.56c0,.16,0,.33,0,.5a9,9,0,0,0,11.84,8.53h0a9,9,0,0,0,6-6.88A9.29,9.29,0,0,0,21,12.05,9,9,0,0,0,15,3.55Zm4.85,8.5c0,.06,0,.12,0,.18a9.84,9.84,0,0,0-5,.52A13.58,13.58,0,0,0,13.2,9.47,9,9,0,0,0,15.26,5,7.8,7.8,0,0,1,19.8,12.05ZM14.11,4.56a7.75,7.75,0,0,1-1.61,3.9A11.57,11.57,0,0,0,8.39,5.14a7.61,7.61,0,0,1,5.72-.58ZM7.18,5.94a10.23,10.23,0,0,1,4.48,3.42,7.72,7.72,0,0,1-5.3,2.1,7.79,7.79,0,0,1-2.1-.31A7.7,7.7,0,0,1,7.18,5.94Zm-3,6.45a9,9,0,0,0,2.14.26,8.86,8.86,0,0,0,6-2.29,12.25,12.25,0,0,1,1.33,2.89,9.81,9.81,0,0,0-4.84,5.92A7.83,7.83,0,0,1,4.22,12.39Zm6.1,7.28L10,19.58a8.62,8.62,0,0,1,4-5.12h0a14.21,14.21,0,0,1,.3,2.9,14.25,14.25,0,0,1-.18,2.18A7.83,7.83,0,0,1,10.32,19.67Zm5.07-.59a16,16,0,0,0,.11-1.71,15.93,15.93,0,0,0-.32-3.14c0-.1-.06-.2-.08-.3a8.63,8.63,0,0,1,4.59-.49.07.07,0,0,1,0,.05A7.82,7.82,0,0,1,15.39,19.08Z"/></svg>