<?xml version="1.0" encoding="utf-8"?>
<!-- Generator: Adobe Illustrator 23.0.1, SVG Export Plug-In . SVG Version: 6.00 Build 0)  -->
<svg version="1.1" id="Capa_1" xmlns="http://www.w3.org/2000/svg" xmlns:xlink="http://www.w3.org/1999/xlink" x="0px" y="0px"
	 viewBox="0 0 438.5 438.5" style="enable-background:new 0 0 438.5 438.5;" xml:space="preserve">
<title>logo-github</title>
<path d="M378.1,135c-16-26.6-39-48.9-66.7-64.2C283.3,54.9,252.6,47,219.3,47s-63.9,7.9-92.1,23.6C99.6,86.1,76.5,108.2,60.6,135
	C44.2,162,36,191.6,36,223.6c0,38.5,11.6,73,35,103.8s53.4,52,90.3,63.8c4.3,0.8,7.5,0.3,9.5-1.6c2-1.8,3.1-4.2,3.1-6.9
	c0-0.4,0-4.6-0.1-12.4c-0.1-7.9-0.1-14.6-0.1-20.5l-5.5,0.9c-4.4,0.7-8.8,1-13.3,0.8c-5.6-0.1-11.1-0.6-16.6-1.6
	c-5.9-1.1-11.3-3.4-15.9-6.9c-4.9-3.6-8.6-8.6-10.5-14.2l-2.4-5.3c-2-4.1-4.6-8.1-7.5-11.7c-3.4-4.3-6.9-7.2-10.4-8.7l-1.8-1.1
	c-1.2-0.8-2.2-1.8-3.1-2.7c-0.9-1-1.6-2-2.1-3.3c-0.5-1.1-0.1-1.9,1.2-2.6s3.7-1.1,7-1.1l4.8,0.7c3.2,0.6,7.1,2.5,11.8,5.6
	c4.8,3.1,8.7,7.1,11.5,11.9c3.7,6.3,8.1,11.1,13.3,14.4c5.2,3.3,10.4,4.9,15.7,4.9c4.6,0.1,9.2-0.4,13.7-1.1
	c3.7-0.7,7.3-1.9,10.7-3.4c1.5-10.2,5.3-18.2,11.7-23.6c-8.2-0.8-16.5-2.1-24.6-4.1c-7.9-2.1-15.4-5.1-22.4-9
	c-7.4-3.9-13.9-9.1-19.2-15.4c-5.1-6.1-9.3-14.2-12.6-24.2c-3.3-10-4.9-21.4-4.9-34.5c0-18.5,6.3-34.3,18.9-47.4
	c-5.9-13.9-5.3-29.6,1.6-46.9c4.6-1.4,11.5-0.4,20.5,3.1c9.1,3.4,15.8,6.4,20,8.8c4.2,2.5,7.6,4.5,10.2,6.2c30-7.9,61.7-7.9,91.7,0
	l9.1-5.6c7-4.1,14.3-7.4,22-10.1c8.4-3.1,14.9-3.9,19.3-2.6c7.1,17.3,7.8,33,1.9,46.9c12.6,13.1,18.9,28.8,18.9,47.4
	c0,13.1-1.6,24.6-4.9,34.7c-3.3,10.1-7.5,18.1-12.6,24.2c-5.4,6.3-11.9,11.4-19.3,15.3c-7.1,3.9-14.6,6.9-22.4,9
	c-8.1,1.9-16.2,3.4-24.5,4.1c8.2,6.9,12.5,17.7,12.5,32.6v48.5c-0.1,2.6,1,5.1,3,6.9c2,1.9,5.1,2.4,9.4,1.6
	c36.9-11.8,67.1-33.1,90.4-63.8c23.4-30.7,35-65.3,35-103.8C402.7,191.6,394.5,162,378.1,135z"/>
</svg>
