<?xml version="1.0" encoding="utf-8"?>
<!-- Generator: Adobe Illustrator 23.0.1, SVG Export Plug-In . SVG Version: 6.00 Build 0)  -->
<svg version="1.1" id="Layer_1" xmlns="http://www.w3.org/2000/svg" xmlns:xlink="http://www.w3.org/1999/xlink" x="0px" y="0px"
	 viewBox="0 0 500 500" style="enable-background:new 0 0 500 500;" xml:space="preserve">
<style type="text/css">
	.st0{fill:none;stroke:#231F20;stroke-width:7;stroke-miterlimit:10;}
	.st1{fill:#231F20;}
</style>
<path class="st0" d="M431.7,254c0,93.3-73.6,181.7-181.7,181.7c-100.3,0-181.7-81.3-181.7-181.7c0-100.3,81.3-181.7,181.7-181.7
	S431.7,153.7,431.7,254z"/>
<path class="st1" d="M274.8,285.1l-0.8,31.2c-2.2,6.1-7.7,10.9-10.5,11.2s2.7-54.3,2.6-55.3c-0.1-1,2.4-4.6,6-8.3
	c2.4-2.5,2.9,3.8,3,8c6.5-10,19.2-25,32.3-14.7C312.9,261.6,295.2,257.6,274.8,285.1z"/>
<path class="st1" d="M247.9,163c-7.3-3.1-12.1-0.3-17.6,6.5c-5.6,6.8-40.2,84.3-40.2,167.8c0,8.7,8.8,3.6,9.1-2.1
	c1.6-25.6,6.1-70.8,10.8-79.9c0.6-1.1,2.8-3.6,5.8-6.6c8.7-7.4,20.9-16,28.1-20.7c0.5,0.1,0.9,0.5,0.9,1.2c1,9.7-3.9,40.9,0.7,39.1
	c4.5-1.7,8.9-14.4,9.8-36.6C256.4,208.2,255.7,166.3,247.9,163z M243.5,217.5c-9.2,6.3-23.1,16.7-30.3,22
	c4.3-43.6,27.7-70.3,27.7-70.3C243,167.1,245,212.3,243.5,217.5z"/>
</svg>
