<svg id="Layer_1" data-name="Layer 1" xmlns="http://www.w3.org/2000/svg" viewBox="0 0 24 24"><defs><style>.cls-1{fill:none;}.cls-2{fill-rule:evenodd;}</style></defs><title>logo-twitter</title><rect class="cls-1" width="24" height="24"/><path class="cls-2" d="M6.53,20.93H18.6a2.8,2.8,0,0,0,2.79-2.79V6.07A2.79,2.79,0,0,0,18.6,3.28H6.53A2.79,2.79,0,0,0,3.74,6.07V18.14A2.79,2.79,0,0,0,6.53,20.93ZM4.94,6.07A1.59,1.59,0,0,1,6.53,4.48H18.6a1.59,1.59,0,0,1,1.59,1.59V18.14a1.59,1.59,0,0,1-1.59,1.59H6.53a1.59,1.59,0,0,1-1.59-1.59ZM16.62,9.15a4.45,4.45,0,0,0,1.25-.34A4.41,4.41,0,0,1,16.77,10a2.53,2.53,0,0,1,0,.28,6.19,6.19,0,0,1-9.53,5.21,4.4,4.4,0,0,0,3.22-.9,2.2,2.2,0,0,1-2-1.52,1.84,1.84,0,0,0,.41,0A2.12,2.12,0,0,0,9.42,13a2.18,2.18,0,0,1-1.74-2.14v0a2.18,2.18,0,0,0,1,.27A2.17,2.17,0,0,1,8,8.19a6.19,6.19,0,0,0,4.49,2.28,2.07,2.07,0,0,1-.05-.5A2.18,2.18,0,0,1,16.2,8.48,4.44,4.44,0,0,0,17.58,8,2.16,2.16,0,0,1,16.62,9.15Z"/></svg>